<?xml version="1.0" encoding="UTF-8" standalone="no"?>
<svg
   xmlns:dc="http://purl.org/dc/elements/1.1/"
   xmlns:cc="http://creativecommons.org/ns#"
   xmlns:rdf="http://www.w3.org/1999/02/22-rdf-syntax-ns#"
   xmlns:svg="http://www.w3.org/2000/svg"
   xmlns="http://www.w3.org/2000/svg"
   viewBox="0 0 1536 960"
   height="960"
   width="1536"
   xml:space="preserve"
   id="svg2"
   version="1.1"><metadata
     id="metadata8"><rdf:RDF><cc:Work
         rdf:about=""><dc:format>image/svg+xml</dc:format><dc:type
           rdf:resource="http://purl.org/dc/dcmitype/StillImage" /></cc:Work></rdf:RDF></metadata><defs
     id="defs6"><clipPath
       id="clipPath22"
       clipPathUnits="userSpaceOnUse"><path
         id="path20"
         d="M 62.39,56.36 H 1141.2 V 709.2 H 62.39 Z" /></clipPath><clipPath
       id="clipPath32"
       clipPathUnits="userSpaceOnUse"><path
         id="path30"
         d="M 62.39,56.36 H 1141.2 V 709.2 H 62.39 Z" /></clipPath><clipPath
       id="clipPath42"
       clipPathUnits="userSpaceOnUse"><path
         id="path40"
         d="M 62.39,56.36 H 1141.2 V 709.2 H 62.39 Z" /></clipPath><clipPath
       id="clipPath52"
       clipPathUnits="userSpaceOnUse"><path
         id="path50"
         d="M 62.39,56.36 H 1141.2 V 709.2 H 62.39 Z" /></clipPath><clipPath
       id="clipPath62"
       clipPathUnits="userSpaceOnUse"><path
         id="path60"
         d="M 62.39,56.36 H 1141.2 V 709.2 H 62.39 Z" /></clipPath><clipPath
       id="clipPath72"
       clipPathUnits="userSpaceOnUse"><path
         id="path70"
         d="M 62.39,56.36 H 1141.2 V 709.2 H 62.39 Z" /></clipPath><clipPath
       id="clipPath248"
       clipPathUnits="userSpaceOnUse"><path
         id="path246"
         d="M 62.39,56.36 H 1141.2 V 709.2 H 62.39 Z" /></clipPath><clipPath
       id="clipPath258"
       clipPathUnits="userSpaceOnUse"><path
         id="path256"
         d="M 62.39,56.36 H 1141.2 V 709.2 H 62.39 Z" /></clipPath><clipPath
       id="clipPath268"
       clipPathUnits="userSpaceOnUse"><path
         id="path266"
         d="M 62.39,56.36 H 1141.2 V 709.2 H 62.39 Z" /></clipPath><clipPath
       id="clipPath278"
       clipPathUnits="userSpaceOnUse"><path
         id="path276"
         d="M 62.39,56.36 H 1141.2 V 709.2 H 62.39 Z" /></clipPath><clipPath
       id="clipPath288"
       clipPathUnits="userSpaceOnUse"><path
         id="path286"
         d="M 62.39,56.36 H 1141.2 V 709.2 H 62.39 Z" /></clipPath><clipPath
       id="clipPath298"
       clipPathUnits="userSpaceOnUse"><path
         id="path296"
         d="M 62.39,56.36 H 1141.2 V 709.2 H 62.39 Z" /></clipPath><clipPath
       id="clipPath308"
       clipPathUnits="userSpaceOnUse"><path
         id="path306"
         d="M 62.39,56.36 H 1141.2 V 709.2 H 62.39 Z" /></clipPath><clipPath
       id="clipPath318"
       clipPathUnits="userSpaceOnUse"><path
         id="path316"
         d="M 62.39,56.36 H 1141.2 V 709.2 H 62.39 Z" /></clipPath><clipPath
       id="clipPath328"
       clipPathUnits="userSpaceOnUse"><path
         id="path326"
         d="M 62.39,56.36 H 1141.2 V 709.2 H 62.39 Z" /></clipPath><clipPath
       id="clipPath338"
       clipPathUnits="userSpaceOnUse"><path
         id="path336"
         d="M 62.39,56.36 H 1141.2 V 709.2 H 62.39 Z" /></clipPath><clipPath
       id="clipPath348"
       clipPathUnits="userSpaceOnUse"><path
         id="path346"
         d="M 62.39,56.36 H 1141.2 V 709.2 H 62.39 Z" /></clipPath><clipPath
       id="clipPath358"
       clipPathUnits="userSpaceOnUse"><path
         id="path356"
         d="M 62.39,56.36 H 1141.2 V 709.2 H 62.39 Z" /></clipPath></defs><g
     transform="matrix(1.3333333,0,0,-1.3333333,0,960)"
     id="g10"><path
       id="path12"
       style="fill:#ffffff;fill-opacity:1;fill-rule:nonzero;stroke:none"
       d="M 0,0 H 1152 V 720 H 0 Z" /><path
       id="path14"
       style="fill:#ffffff;fill-opacity:1;fill-rule:nonzero;stroke:none"
       d="M 62.39,56.36 H 1141.2 V 709.2 H 62.39 Z" /><g
       id="g16"><g
         clip-path="url(#clipPath22)"
         id="g18"><path
           id="path24"
           style="fill:#1f77b4;fill-opacity:0.3;fill-rule:nonzero;stroke:none"
           d="m 111.42682,-299.14185 v -68.92247 l 9.90643,104.20709 9.90642,73.35149 9.90643,162.15643 9.90643,140.82618 9.90643,91.2019 9.90643,24.73428 9.90642,12.72853 9.90643,44.13736 9.90643,-43.52322 9.90643,86.53077 9.90642,4.52544 9.90643,20.17374 9.90643,-33.91783 9.90643,4.8279 9.90643,-15.01565 9.90642,102.72333 9.90643,-39.87428 9.90643,16.01049 9.90643,-7.98786 9.90643,10.20002 9.90642,17.81605 9.90643,39.65115 9.90643,-81.93428 9.90643,8.61952 9.90643,-28.07096 9.90642,88.30323 9.90643,-27.15442 9.90643,26.7698 9.90643,20.70532 9.90643,-60.34698 9.90642,-125.98674 9.90643,144.69233 9.90643,26.46805 9.90643,25.13806 9.90642,-0.36493 9.90643,-145.54803 9.90643,76.92314 9.90643,40.94807 9.90643,-3.77692 9.90642,-30.81132 9.90643,31.03708 9.90643,-49.32521 9.90643,26.68286 9.90643,15.31765 9.90642,-15.50158 9.90643,2.3231 9.90643,21.96184 9.90643,-27.16995 9.90643,-58.40776 9.90642,61.58192 9.90643,-12.85532 9.90643,68.66258 9.90643,-44.83533 9.90643,-28.01672 9.90642,58.73143 9.90643,-37.4547 9.90643,-25.89461 9.90643,38.81369 9.90642,10.52044 9.90643,156.14848 9.90643,9.22977 9.90643,0.20372 9.90643,2.68797 9.90642,-2.59153 9.90643,1.24002 9.90643,3.73589 9.90643,-3.60778 9.90643,1.11483 9.90642,3.97919 9.90643,-6.31845 9.90643,5.01725 9.90643,-4.99926 9.90643,-0.0387 9.90642,0.54567 9.90643,-5.79696 9.90643,3.68737 9.90643,-7.41266 9.90643,3.73575 9.90642,1.77179 9.90643,4.1987 9.90643,-6.90694 9.90643,0.5529 9.90643,-1.21979 9.90642,-0.58625 9.90643,-5.00801 9.90643,8.18342 9.90643,-6.52471 9.90643,2.46768 9.90642,-1.17095 9.9064,-10.65048 9.9065,7.93682 9.9064,-9.43617 9.9064,1.62495 9.9064,9.20384 9.9065,-17.65753 9.9064,15.4823 9.9064,-10.91313 9.9065,4.18772 9.9064,5.15655 v 10.20234 0 l -9.9064,-6.92092 -9.9065,-0.38215 -9.9064,3.99333 -9.9064,3.73118 -9.9065,-3.94795 -9.9064,-2.0031 -9.9064,1.51606 -9.9064,0.90049 -9.9065,0.32033 -9.9064,-0.42258 -9.90642,1.98438 -9.90643,0.94439 -9.90643,5.11759 -9.90643,-0.19472 -9.90643,0.54114 -9.90642,-2.87111 -9.90643,0.95631 -9.90643,11.75997 -9.90643,-6.25412 -9.90643,2.13142 -9.90642,-6.60636 -9.90643,4.60622 -9.90643,-1.75474 -9.90643,2.2729 -9.90643,-0.13898 -9.90642,6.31241 -9.90643,-5.9143 -9.90643,5.33734 -9.90643,-2.59918 -9.90643,-0.76931 -9.90642,-0.80831 -9.90643,1.55006 -9.90643,1.50614 -9.90643,0.68931 -9.90643,-0.93608 -9.90642,-1.82995 -9.90643,0.0766 -9.90643,-5.8895 -9.90643,-6.7648 -9.90643,-115.54172 -9.90642,-15.26673 -9.90643,-3.94736 -9.90643,-4.02447 -9.90643,4.76229 -9.90642,-13.62501 -9.90643,4.84283 -9.90643,34.37596 -9.90643,-20.34119 -9.90643,9.77647 -9.90642,19.36486 -9.90643,-41.10748 -9.90643,15.69986 -9.90643,0.30928 -9.90643,32.57138 -9.90642,-19.41862 -9.90643,-0.67692 -9.90643,-29.35261 -9.90643,37.28494 -9.90643,-20.31963 -9.90642,-6.87383 -9.90643,-1.81846 -9.90643,-9.10301 -9.90643,-6.0963 -9.90643,45.08122 -9.90642,-9.93987 -9.90643,-14.46759 -9.90643,-12.15831 -9.90643,2.04679 -9.90642,-11.19579 -9.90643,24.30465 -9.90643,-21.83815 -9.90643,32.64537 -9.90643,-25.63107 -9.90642,9.9624 -9.90643,-42.21584 -9.90643,31.90418 -9.90643,-8.38096 -9.90643,-15.62266 -9.90642,-5.14214 -9.90643,29.24123 -9.90643,-34.86315 -9.90643,-36.54316 -9.90643,58.16058 -9.90642,-37.96369 -9.90643,-18.06222 -9.90643,1.99885 -9.90643,-24.77805 -9.90643,5.59369 -9.90642,8.11607 -9.90643,12.10698 -9.90643,-65.61094 -9.90643,-9.17793 -9.90642,-35.58168 -9.90643,-64.48719 -9.90643,-70.48479 -9.90643,-134.781056 -9.90643,-73.518877 -9.90642,-135.666097 -9.90643,-102.52554 z" /></g></g><g
       id="g26"><g
         clip-path="url(#clipPath32)"
         id="g28"><path
           id="path34"
           style="fill:#ff7f0e;fill-opacity:0.3;fill-rule:nonzero;stroke:none"
           d="m 111.42682,-349.37949 v -65.39398 l 9.90643,89.48754 9.90642,144.43719 9.90643,141.05874 9.90643,77.937334 9.90643,52.500472 9.90643,-28.315288 9.90642,152.174092 9.90643,30.7206 9.90643,1.7595 9.90643,31.39719 9.90642,-0.47045 9.90643,35.87341 9.90643,-29.02729 9.90643,76.10506 9.90643,-1.43628 9.90642,-13.60796 9.90643,-12.00554 9.90643,23.67476 9.90643,-19.82308 9.90643,-23.8001 9.90642,23.98756 9.90643,-8.96713 9.90643,-19.65071 9.90643,62.212 9.90643,-14.29894 9.90642,-17.71028 9.90643,36.26505 9.90643,-33.18974 9.90643,45.86772 9.90643,-69.27987 9.90642,63.5843 9.90643,-101.68013 9.90643,102.81597 9.90643,23.66538 9.90642,-41.78092 9.90643,-15.24864 9.90643,24.32683 9.90643,24.31771 9.90643,24.3241 9.90642,-30.32346 9.90643,-18.88948 9.90643,-38.17509 9.90643,70.80242 9.90643,-7.25782 9.90642,-49.12775 9.90643,60.10988 9.90643,-33.39339 9.90643,41.43061 9.90643,-51.31596 9.90642,-18.54462 9.90643,57.93387 9.90643,-5.14065 9.90643,-72.99923 9.90643,2.45531 9.90642,52.81627 9.90643,12.12596 9.90643,-26.47846 9.90643,29.2781 9.90642,-24.66364 9.90643,184.04701 9.90643,12.88634 9.90643,-4.49312 9.90643,1.43419 9.90642,-7.38568 9.90643,-1.6775 9.90643,-1.40532 9.90643,-10.83107 9.90643,7.63196 9.90642,-17.85805 9.90643,6.36529 9.90643,-20.15912 9.90643,16.91534 9.90643,-16.15564 9.90642,6.8087 9.90643,-3.41604 9.90643,-5.36433 9.90643,5.48994 9.90643,-9.3971 9.90642,-2.10325 9.90643,-2.28712 9.90643,-16.41835 9.90643,25.95288 9.90643,-6.36068 9.90642,-23.7503 9.90643,4.44279 9.90643,8.96701 9.90643,7.39677 9.90643,-16.42666 9.90642,13.54722 9.9064,-8.96772 9.9065,4.13895 9.9064,-29.90386 9.9064,6.62492 9.9064,13.04766 9.9065,3.25206 9.9064,-7.08304 9.9064,9.19975 9.9065,-12.35753 9.9064,-9.63866 v 23.87609 0 l -9.9064,8.09678 -9.9065,4.28987 -9.9064,-6.68606 -9.9064,5.21214 -9.9065,6.6251 -9.9064,-18.61508 -9.9064,9.12743 -9.9064,0.34443 -9.9065,3.37737 -9.9064,1.69522 -9.90642,3.42821 -9.90643,0.87368 -9.90643,-6.857 -9.90643,-10.83578 -9.90643,18.26126 -9.90642,-1.77128 -9.90643,5.49914 -9.90643,-11.47659 -9.90643,9.47771 -9.90643,1.19463 -9.90642,2.68419 -9.90643,11.38505 -9.90643,2.33448 -9.90643,-1.01205 -9.90643,-1.45746 -9.90642,4.08847 -9.90643,4.40886 -9.90643,-6.47809 -9.90643,9.87152 -9.90643,6.25646 -9.90642,5.20897 -9.90643,-10.8652 -9.90643,14.52088 -9.90643,3.49102 -9.90643,-1.24234 -9.90642,6.43278 -9.90643,-4.00613 -9.90643,4.75549 -9.90643,-3.97871 -9.90643,-144.76675 -9.90642,-2.68461 -9.90643,-11.19802 -9.90643,0.28794 -9.90643,22.78898 -9.90642,-11.5972 -9.90643,-44.87561 -9.90643,86.8377 -9.90643,-39.52348 -9.90643,-14.85781 -9.90642,14.53264 -9.90643,13.85916 -9.90643,-34.84281 -9.90643,39.94227 -9.90643,12.99663 -9.90642,-22.68775 -9.90643,12.87138 -9.90643,-78.69791 -9.90643,26.67368 -9.90643,54.44619 -9.90642,-17.15781 -9.90643,-28.0119 -9.90643,17.02762 -9.90643,7.67944 -9.90643,-25.25883 -9.90642,26.7673 -9.90643,15.06966 -9.90643,-21.87653 -9.90643,-0.38119 -9.90642,-44.67826 -9.90643,49.64584 -9.90643,-56.08419 -9.90643,46.56561 -9.90643,-40.8789 -9.90642,12.86441 -9.90643,5.06862 -9.90643,1.49786 -9.90643,22.1311 -9.90643,-24.63529 -9.90642,33.45369 -9.90643,-8.13193 -9.90643,-42.34604 -9.90643,-14.08113 -9.90643,59.37155 -9.90642,-18.83058 -9.90643,-25.04735 -9.90643,-48.69621 -9.90643,11.01353 -9.90643,18.35561 -9.90642,-1.44981 -9.90643,-69.24894 -9.90643,26.45862 -9.90643,-15.30453 -9.90642,-82.8484 -9.90643,-57.47545 -9.90643,-99.828846 -9.90643,-79.941136 -9.90643,-83.409408 -9.90642,-128.12353 z" /></g></g><g
       id="g36"><g
         clip-path="url(#clipPath42)"
         id="g38"><path
           id="path44"
           style="fill:#2ca02c;fill-opacity:0.3;fill-rule:nonzero;stroke:none"
           d="m 111.42682,-320.67486 v -52.40531 l 9.90643,70.08426 9.90642,115.9233 9.90643,93.54663 9.90643,85.16344 9.90643,80.340044 9.90643,62.375736 9.90642,-83.613587 9.90643,106.664747 9.90643,110.56873 9.90643,4.84664 9.90642,-22.74562 9.90643,35.12795 9.90643,-10.80653 9.90643,-18.87619 9.90643,69.56079 9.90642,-18.1411 9.90643,-27.22471 9.90643,86.09147 9.90643,-25.29692 9.90643,-65.16357 9.90642,-8.90796 9.90643,-44.58043 9.90643,83.13234 9.90643,76.935 9.90643,-50.78426 9.90642,18.17197 9.90643,-0.98774 9.90643,16.46551 9.90643,-4.67118 9.90643,-89.45307 9.90642,57.78694 9.90643,-28.73807 9.90643,56.55329 9.90643,-27.5826 9.90642,-0.99022 9.90643,40.60888 9.90643,16.98447 9.90643,-75.00275 9.90643,20.15127 9.90642,13.43828 9.90643,-33.74302 9.90643,-0.19021 9.90643,55.41478 9.90643,22.46133 9.90642,-37.63436 9.90643,16.40438 9.90643,-57.56564 9.90643,40.82392 9.90643,-12.49827 9.90642,52.82024 9.90643,-110.15152 9.90643,71.83426 9.90643,-52.91491 9.90643,81.08436 9.90642,-11.67566 9.90643,-46.48202 9.90643,6.51325 9.90643,23.27007 9.90642,-41.43532 9.90643,225.75671 9.90643,10.0544 9.90643,-3.25935 9.90643,-1.61325 9.90642,-1.46896 9.90643,-10.17301 9.90643,-3.0985 9.90643,-11.06207 9.90643,0.35873 9.90642,-13.2788 9.90643,4.1628 9.90643,-25.97073 9.90643,0.8278 9.90643,6.10344 9.90642,-13.90807 9.90643,-13.59543 9.90643,7.78967 9.90643,-5.73419 9.90643,1.68368 9.90642,-2.2208 9.90643,-9.31809 9.90643,-14.79009 9.90643,-0.70205 9.90643,20.33441 9.90642,-20.6542 9.90643,8.7604 9.90643,-2.43492 9.90643,-15.02413 9.90643,11.8591 9.90642,-6.63933 9.9064,-7.17839 9.9065,7.49978 9.9064,-11.81474 9.9064,-10.44422 9.9064,12.38912 9.9065,-11.30305 9.9064,-14.88356 9.9064,21.46895 9.9065,0.20437 9.9064,-8.89781 v 11.72187 0 l -9.9064,20.58882 -9.9065,-4.1479 -9.9064,-23.25056 -9.9064,28.96547 -9.9065,-9.99734 -9.9064,7.16637 -9.9064,-0.76044 -9.9064,8.64093 -9.9065,-2.72805 -9.9064,4.68149 -9.90642,-1.63417 -9.90643,6.96277 -9.90643,-0.87925 -9.90643,-5.04626 -9.90643,4.08172 -9.90642,6.65626 -9.90643,-4.36471 -9.90643,7.67608 -9.90643,2.72778 -9.90643,6.02367 -9.90642,10.40078 -9.90643,-16.48706 -9.90643,12.32767 -9.90643,-8.42242 -9.90643,19.59052 -9.90642,11.98794 -9.90643,-5.21252 -9.90643,5.83296 -9.90643,6.78013 -9.90643,-0.51594 -9.90642,20.45127 -9.90643,-10.30434 -9.90643,8.41439 -9.90643,7.78209 -9.90643,6.90968 -9.90642,4.18902 -9.90643,-0.19879 -9.90643,3.48668 -9.90643,-2.8936 -9.90643,-148.6471 -9.90642,-0.63279 -9.90643,-14.05059 -9.90643,-40.81765 -9.90643,60.36609 -9.90642,22.92489 -9.90643,3.17876 -9.90643,-2.31984 -9.90643,-111.39609 -9.90643,90.48793 -9.90642,-35.09547 -9.90643,50.28308 -9.90643,-27.39783 -9.90643,0.86351 -9.90643,45.02054 -9.90642,-36.00218 -9.90643,-23.34636 -9.90643,18.31172 -9.90643,-56.00795 -9.90643,23.05395 -9.90642,65.01276 -9.90643,-66.8941 -9.90643,51.43055 -9.90643,-5.6473 -9.90643,-16.0794 -9.90642,9.12879 -9.90643,-11.58803 -9.90643,-35.06188 -9.90643,63.20358 -9.90642,-21.53311 -9.90643,-23.62501 -9.90643,51.79944 -9.90643,-48.16574 -9.90643,-1.85814 -9.90642,-7.50638 -9.90643,16.13185 -9.90643,-3.90841 -9.90643,-61.03648 -9.90643,0.90078 -9.90642,45.49532 -9.90643,-3.9053 -9.90643,40.31342 -9.90643,-81.25313 -9.90643,40.45298 -9.90642,-11.17748 -9.90643,1.66544 -9.90643,0.38261 -9.90643,4.42635 -9.90643,-1.64866 -9.90642,-39.61065 -9.90643,-12.34482 -9.90643,-20.54334 -9.90643,-28.6907 -9.90642,-72.73293 -9.90643,-16.40026 -9.90643,-67.637061 -9.90643,-118.305 -9.90643,-82.067279 -9.90642,-159.79287 z" /></g></g><g
       id="g46"><g
         clip-path="url(#clipPath52)"
         id="g48"><path
           id="path54"
           style="fill:#d62728;fill-opacity:0.3;fill-rule:nonzero;stroke:none"
           d="m 111.42682,-399.14176 v -77.50502 l 9.90643,124.63398 9.90642,88.792 9.90643,104.77035 9.90643,77.275116 9.90643,29.118292 9.90643,84.929617 9.90642,107.073205 9.90643,-8.60519 9.90643,65.29502 9.90643,73.83193 9.90642,-23.69424 9.90643,14.55726 9.90643,-29.14842 9.90643,58.97258 9.90643,-25.11095 9.90642,9.3204 9.90643,8.3066 9.90643,39.72476 9.90643,-50.59288 9.90643,74.49501 9.90642,-11.21371 9.90643,-19.96201 9.90643,-76.76064 9.90643,71.03115 9.90643,11.28662 9.90642,-69.75361 9.90643,68.86602 9.90643,-28.9966 9.90643,-13.4308 9.90643,86.82937 9.90642,6.84304 9.90643,-66.48385 9.90643,-49.18727 9.90643,64.66853 9.90642,6.8252 9.90643,-31.68399 9.90643,90.74288 9.90643,-83.41538 9.90643,29.32087 9.90642,27.90918 9.90643,-14.13142 9.90643,29.87163 9.90643,-31.67518 9.90643,-48.51016 9.90642,102.90113 9.90643,-150.7228 9.90643,122.5163 9.90643,-23.06246 9.90643,1.97626 9.90642,38.62078 9.90643,-4.58773 9.90643,-75.93639 9.90643,-115.18761 9.90643,144.26649 9.90642,1.31195 9.90643,1.23772 9.90643,-14.99049 9.90643,51.35872 9.90642,-28.69731 9.90643,193.82081 9.90643,4.10425 9.90643,-0.33866 9.90643,-6.41199 9.90642,-6.39168 9.90643,-0.99029 9.90643,-9.13619 9.90643,-4.48869 9.90643,-5.08841 9.90642,-8.04477 9.90643,-15.89361 9.90643,-1.84915 9.90643,-2.45208 9.90643,-10.81102 9.90642,2.34993 9.90643,2.23075 9.90643,-10.12476 9.90643,-5.61933 9.90643,-20.12722 9.90642,-3.44011 9.90643,20.64152 9.90643,-32.6743 9.90643,13.23893 9.90643,3.23698 9.90642,4.47273 9.90643,-17.21598 9.90643,17.24861 9.90643,-28.79116 9.90643,21.95597 9.90642,-11.85295 9.9064,-7.97142 9.9065,-2.35981 9.9064,-9.5327 9.9064,7.53376 9.9064,-22.65954 9.9065,15.47782 9.9064,-7.43201 9.9064,1.21892 9.9065,-2.34026 9.9064,5.11715 v 16.31955 0 l -9.9064,5.66121 -9.9065,12.45744 -9.9064,-28.1589 -9.9064,10.5211 -9.9065,10.79913 -9.9064,-10.47319 -9.9064,14.2798 -9.9064,7.98516 -9.9065,-7.3649 -9.9064,2.90924 -9.90642,17.41603 -9.90643,-11.6653 -9.90643,10.92332 -9.90643,-20.61617 -9.90643,26.63312 -9.90642,-6.19028 -9.90643,5.52191 -9.90643,11.06276 -9.90643,-0.0323 -9.90643,-0.24938 -9.90642,8.9639 -9.90643,6.63918 -9.90643,-12.69176 -9.90643,7.06675 -9.90643,2.99233 -9.90642,-1.2407 -9.90643,15.30256 -9.90643,-3.21372 -9.90643,9.90197 -9.90643,12.28733 -9.90642,-4.88937 -9.90643,7.09795 -9.90643,7.15361 -9.90643,13.16918 -9.90643,-0.77264 -9.90642,4.92414 -9.90643,1.85733 -9.90643,1.51117 -9.90643,-6.45007 -9.90643,-169.37586 -9.90642,15.04297 -9.90643,18.60792 -9.90643,11.34069 -9.90643,-48.59571 -9.90642,46.14035 -9.90643,27.73447 -9.90643,-38.26124 -9.90643,11.7618 -9.90643,-23.08488 -9.90642,-8.4926 -9.90643,18.51489 -9.90643,-1.73632 -9.90643,-15.12408 -9.90643,25.21753 -9.90642,-40.83247 -9.90643,30.15701 -9.90643,-10.45785 -9.90643,-33.88909 -9.90643,40.48957 -9.90642,-28.34379 -9.90643,3.42481 -9.90643,41.1683 -9.90643,2.93585 -9.90643,-36.79791 -9.90642,14.9857 -9.90643,-2.13877 -9.90643,-21.11509 -9.90643,15.77395 -9.90642,-7.95466 -9.90643,16.43146 -9.90643,-2.22374 -9.90643,-47.16728 -9.90643,-1.74949 -9.90642,24.25526 -9.90643,14.55085 -9.90643,-21.56332 -9.90643,11.91678 -9.90643,-9.62528 -9.90642,-1.74758 -9.90643,14.97775 -9.90643,-5.87332 -9.90643,-52.21689 -9.90643,54.3318 -9.90642,-48.45599 -9.90643,0.89388 -9.90643,-30.2489 -9.90643,22.86123 -9.90643,-16.01743 -9.90642,-16.51304 -9.90643,-47.05223 -9.90643,-60.37665 -9.90643,-35.15402 -9.90642,-74.089921 -9.90643,-21.156913 -9.90643,-92.962746 -9.90643,-82.45311 -9.90643,-71.17004 -9.90642,-96.83218 -9.90643,-105.05684 z" /></g></g><g
       id="g56"><g
         clip-path="url(#clipPath62)"
         id="g58"><path
           id="path64"
           style="fill:#9467bd;fill-opacity:0.3;fill-rule:nonzero;stroke:none"
           d="m 111.42682,-331.99407 v -131.71872 l 9.90643,130.1875 9.90642,119.38761 9.90643,82.58428 9.90643,-7.54343 9.90643,140.944119 9.90643,51.541232 9.90642,59.999639 9.90643,33.91434 9.90643,83.58373 9.90643,-15.92636 9.90642,23.28879 9.90643,72.83583 9.90643,-25.43341 9.90643,8.73873 9.90643,16.99962 9.90642,-6.11602 9.90643,-84.30169 9.90643,61.6294 9.90643,24.78564 9.90643,-3.88525 9.90642,-140.8763 9.90643,123.52389 9.90643,18.883 9.90643,-24.09685 9.90643,84.5928 9.90642,-7.23112 9.90643,-82.76705 9.90643,-81.75362 9.90643,111.90862 9.90643,-109.59446 9.90642,153.56118 9.90643,-44.10547 9.90643,39.69668 9.90643,38.30513 9.90642,-38.0587 9.90643,-13.27199 9.90643,38.2663 9.90643,-36.74392 9.90643,22.28032 9.90642,-20.399 9.90643,-32.24287 9.90643,50.81432 9.90643,12.64772 9.90643,-80.60916 9.90642,69.75066 9.90643,-9.39161 9.90643,22.10381 9.90643,-8.752 9.90643,-239.19371 9.90642,238.70863 9.90643,-5.18016 9.90643,-26.88047 9.90643,60.79383 9.90643,-37.14681 9.90642,-84.72004 9.90643,54.57359 9.90643,57.82727 9.90643,-13.79081 9.90642,26.12354 9.90643,147.53095 9.90643,4.25263 9.90643,-2.75015 9.90643,-2.80023 9.90642,-6.91779 9.90643,0.36773 9.90643,-2.43506 9.90643,-13.17368 9.90643,-14.79048 9.90642,-12.16733 9.90643,14.75934 9.90643,-5.18518 9.90643,-11.40195 9.90643,-6.76832 9.90642,-17.00643 9.90643,8.43468 9.90643,-10.78278 9.90643,3.24196 9.90643,1.12182 9.90642,-11.07646 9.90643,0.25143 9.90643,-11.4726 9.90643,-27.86109 9.90643,22.03513 9.90642,11.62553 9.90643,-12.76925 9.90643,6.08848 9.90643,-6.52154 9.90643,22.55117 9.90642,-43.47583 9.9064,10.2518 9.9065,1.55183 9.9064,-21.08308 9.9064,9.34537 9.9064,5.77142 9.9065,15.12492 9.9064,-22.09123 9.9064,4.82155 9.9065,-0.90209 9.9064,-2.32196 v 11.99441 0 l -9.9064,7.79705 -9.9065,-2.09896 -9.9064,3.40708 -9.9064,2.06384 -9.9065,3.7002 -9.9064,-18.60123 -9.9064,5.3195 -9.9064,6.55381 -9.9065,10.90919 -9.9064,-11.50958 -9.90642,27.57498 -9.90643,-17.05448 -9.90643,16.21907 -9.90643,1.19214 -9.90643,-7.76416 -9.90642,8.68779 -9.90643,-0.27024 -9.90643,4.12812 -9.90643,10.28865 -9.90643,-3.44797 -9.90642,8.83516 -9.90643,-2.25116 -9.90643,-9.05322 -9.90643,19.35667 -9.90643,4.51764 -9.90642,-4.49366 -9.90643,11.51118 -9.90643,6.33356 -9.90643,1.12562 -9.90643,-0.69118 -9.90642,1.75984 -9.90643,21.33342 -9.90643,0.10067 -9.90643,8.44567 -9.90643,0.0412 -9.90642,6.24786 -9.90643,-0.18889 -9.90643,1.60213 -9.90643,-5.21357 -9.90643,-123.72407 -9.90642,6.10309 -9.90643,-23.03935 -9.90643,-44.23339 -9.90643,44.23699 -9.90642,-1.91818 -9.90643,21.17358 -9.90643,-1.77007 -9.90643,-36.89066 -9.90643,27.89711 -9.90642,4.99191 -9.90643,-16.9017 -9.90643,1.69341 -9.90643,-14.02003 -9.90643,0.83623 -9.90642,8.16612 -9.90643,-8.57913 -9.90643,-5.4142 -9.90643,5.22435 -9.90643,-26.80261 -9.90642,12.35186 -9.90643,10.85567 -9.90643,19.4003 -9.90643,28.69128 -9.90643,-10.22542 -9.90642,-2.58774 -9.90643,-41.12369 -9.90643,33.05948 -9.90643,15.19415 -9.90642,-69.16613 -9.90643,15.64204 -9.90643,17.13805 -9.90643,-16.90485 -9.90643,28.3245 -9.90642,-4.94612 -9.90643,-23.45225 -9.90643,-20.94145 -9.90643,24.75862 -9.90643,11.88814 -9.90642,13.19403 -9.90643,-79.39709 -9.90643,26.85292 -9.90643,-22.04287 -9.90643,30.05402 -9.90642,39.69174 -9.90643,-55.46572 -9.90643,-0.83622 -9.90643,-20.42838 -9.90643,-4.74323 -9.90642,-14.35833 -9.90643,-12.98861 -9.90643,-24.78774 -9.90643,-90.23404 -9.90642,57.71471 -9.90643,-154.973848 -9.90643,-21.939448 -9.90643,-136.152908 -9.90643,-39.061526 -9.90642,-149.0385 -9.90643,-60.87698 z" /></g></g><g
       id="g66"><g
         clip-path="url(#clipPath72)"
         id="g68"><path
           id="path74"
           style="fill:#8c564b;fill-opacity:0.3;fill-rule:nonzero;stroke:none"
           d="m 111.42682,-411.61643 v -150.4817 l 9.90643,146.66162 9.90642,113.57966 9.90643,78.71987 9.90643,12.12864 9.90643,75.99689 9.90643,116.237159 9.90642,-54.089358 9.90643,81.492409 9.90643,34.258905 9.90643,74.395385 9.90642,-64.804299 9.90643,102.280739 9.90643,-21.05438 9.90643,12.49036 9.90643,-12.17004 9.90642,70.28141 9.90643,-127.744478 9.90643,-41.574991 9.90643,174.520909 9.90643,1.87654 9.90642,-34.10121 9.90643,7.40651 9.90643,-47.79777 9.90643,-0.71902 9.90643,1.22023 9.90642,110.73237 9.90643,-28.61463 9.90643,-11.23106 9.90643,-95.63088 9.90643,116.45889 9.90642,-49.83855 9.90643,-5.77107 9.90643,18.23426 9.90643,38.08744 9.90642,-17.76404 9.90643,-29.68117 9.90643,-19.63371 9.90643,-91.745683 9.90643,204.988843 9.90642,-56.31584 9.90643,-40.48774 9.90643,32.97813 9.90643,13.27315 9.90643,-90.80719 9.90642,51.87822 9.90643,7.98516 9.90643,23.41147 9.90643,-42.3966 9.90643,-7.15146 9.90642,97.53875 9.90643,20.76257 9.90643,-20.67388 9.90643,-73.9948 9.90643,77.93829 9.90642,20.2445 9.90643,-85.47762 9.90643,-42.53793 9.90643,56.93025 9.90642,-13.66444 9.90643,234.57195 9.90643,2.98063 9.90643,-8.58022 9.90643,-13.80042 9.90642,-6.55039 9.90643,-9.42837 9.90643,-5.57378 9.90643,-29.4704 9.90643,11.08568 9.90642,-51.77406 9.90643,19.90543 9.90643,-17.30633 9.90643,6.58808 9.90643,-28.00126 9.90642,17.63528 9.90643,-20.77609 9.90643,14.04271 9.90643,-33.58137 9.90643,2.85667 9.90642,-19.41486 9.90643,31.00616 9.90643,-46.70859 9.90643,-25.76981 9.90643,58.46635 9.90642,-36.31448 9.90643,-4.98456 9.90643,-8.4294 9.90643,9.5113 9.90643,4.48276 9.90642,-18.03277 9.9064,3.76525 9.9065,-26.79833 9.9064,-24.62656 9.9064,26.66088 9.9064,-3.98735 9.9065,-9.78927 9.9064,17.16402 9.9064,-6.56068 9.9065,-9.25572 9.9064,-23.849 v 28.68082 0 l -9.9064,17.38875 -9.9065,16.96664 -9.9064,-20.59674 -9.9064,6.82743 -9.9065,0.76491 -9.9064,17.55644 -9.9064,-33.1828 -9.9064,24.00999 -9.9065,21.72946 -9.9064,-1.78385 -9.90642,20.81117 -9.90643,4.59153 -9.90643,-8.5505 -9.90643,-21.15988 -9.90643,16.01511 -9.90642,40.28548 -9.90643,-10.7347 -9.90643,-3.89967 -9.90643,18.03136 -9.90643,-0.8741 -9.90642,10.39805 -9.90643,-17.70769 -9.90643,30.17927 -9.90643,19.0478 -9.90643,0.006 -9.90642,-7.17267 -9.90643,23.89957 -9.90643,-21.37527 -9.90643,7.61051 -9.90643,19.57896 -9.90642,18.29746 -9.90643,6.40692 -9.90643,14.70511 -9.90643,6.06852 -9.90643,4.06369 -9.90642,0.73963 -9.90643,22.10578 -9.90643,-0.31091 -9.90643,0.6957 -9.90643,-225.46258 -9.90642,88.17851 -9.90643,-21.19293 -9.90643,36.89102 -9.90643,-11.92437 -9.90642,10.77831 -9.90643,-18.57322 -9.90643,-33.19227 -9.90643,16.53801 -9.90643,37.08355 -9.90642,-92.00246 -9.90643,90.77451 -9.90643,-2.13819 -9.90643,-3.89893 -9.90643,24.95903 -9.90642,-35.38475 -9.90643,-15.29542 -9.90643,-14.79888 -9.90643,-18.48741 -9.90643,-3.38468 -9.90642,63.26269 -9.90643,-45.8105 -9.90643,29.35606 -9.90643,-19.96012 -9.90643,-42.62917 -9.90642,64.82024 -9.90643,-96.18003 -9.90643,59.03673 -9.90643,-7.2943 -9.90642,-21.98408 -9.90643,-23.35766 -9.90643,91.73422 -9.90643,-47.79013 -9.90643,50.48778 -9.90642,-63.03179 -9.90643,-22.71725 -9.90643,-53.81667 -9.90643,124.98716 -9.90643,-54.61327 -9.90642,31.1828 -9.90643,-15.53251 -9.90643,-72.36146 -9.90643,-1.09887 -9.90643,77.90014 -9.90642,-109.03197 -9.90643,45.71504 -9.90643,-9.3797 -9.90643,21.16254 -9.90643,-1.95603 -9.90642,-62.30172 -9.90643,2.80059 -9.90643,-72.698029 -9.90643,-59.738669 -9.90642,-1.100537 -9.90643,-59.050349 -9.90643,-42.49361 -9.90643,-86.885386 -9.90643,-46.19019 -9.90642,-82.92517 z" /></g></g><g
       id="g76"><path
         id="path78"
         style="fill:#000000;fill-opacity:1;fill-rule:nonzero;stroke:#000000;stroke-width:0.80000001;stroke-linecap:butt;stroke-linejoin:round;stroke-miterlimit:10;stroke-dasharray:none;stroke-opacity:1"
         d="m 111.42682,56.36 v -3.5" /><g
         transform="translate(106.33307,37.20375)"
         id="g80"><text
           id="text84"
           style="font-variant:normal;font-weight:normal;font-size:16px;font-family:'DejaVu Sans';-inkscape-font-specification:DejaVuSans;writing-mode:lr-tb;fill:#000000;fill-opacity:1;fill-rule:nonzero;stroke:none"
           transform="scale(1,-1)"><tspan
             id="tspan82"
             y="0"
             x="0">0</tspan></text>
</g><path
         id="path86"
         style="fill:#000000;fill-opacity:1;fill-rule:nonzero;stroke:#000000;stroke-width:0.80000001;stroke-linecap:butt;stroke-linejoin:round;stroke-miterlimit:10;stroke-dasharray:none;stroke-opacity:1"
         d="m 210.4911,56.36 v -3.5" /><g
         transform="translate(200.3036,37.20375)"
         id="g88"><text
           id="text92"
           style="font-variant:normal;font-weight:normal;font-size:16px;font-family:'DejaVu Sans';-inkscape-font-specification:DejaVuSans;writing-mode:lr-tb;fill:#000000;fill-opacity:1;fill-rule:nonzero;stroke:none"
           transform="scale(1,-1)"><tspan
             id="tspan90"
             y="0"
             x="0 10.176">10</tspan></text>
</g><path
         id="path94"
         style="fill:#000000;fill-opacity:1;fill-rule:nonzero;stroke:#000000;stroke-width:0.80000001;stroke-linecap:butt;stroke-linejoin:round;stroke-miterlimit:10;stroke-dasharray:none;stroke-opacity:1"
         d="m 309.55538,56.36 v -3.5" /><g
         transform="translate(299.36788,37.20375)"
         id="g96"><text
           id="text100"
           style="font-variant:normal;font-weight:normal;font-size:16px;font-family:'DejaVu Sans';-inkscape-font-specification:DejaVuSans;writing-mode:lr-tb;fill:#000000;fill-opacity:1;fill-rule:nonzero;stroke:none"
           transform="scale(1,-1)"><tspan
             id="tspan98"
             y="0"
             x="0 10.176">20</tspan></text>
</g><path
         id="path102"
         style="fill:#000000;fill-opacity:1;fill-rule:nonzero;stroke:#000000;stroke-width:0.80000001;stroke-linecap:butt;stroke-linejoin:round;stroke-miterlimit:10;stroke-dasharray:none;stroke-opacity:1"
         d="m 408.61966,56.36 v -3.5" /><g
         transform="translate(398.43216,37.20375)"
         id="g104"><text
           id="text108"
           style="font-variant:normal;font-weight:normal;font-size:16px;font-family:'DejaVu Sans';-inkscape-font-specification:DejaVuSans;writing-mode:lr-tb;fill:#000000;fill-opacity:1;fill-rule:nonzero;stroke:none"
           transform="scale(1,-1)"><tspan
             id="tspan106"
             y="0"
             x="0 10.176">30</tspan></text>
</g><path
         id="path110"
         style="fill:#000000;fill-opacity:1;fill-rule:nonzero;stroke:#000000;stroke-width:0.80000001;stroke-linecap:butt;stroke-linejoin:round;stroke-miterlimit:10;stroke-dasharray:none;stroke-opacity:1"
         d="m 507.68393,56.36 v -3.5" /><g
         transform="translate(497.49643,37.20375)"
         id="g112"><text
           id="text116"
           style="font-variant:normal;font-weight:normal;font-size:16px;font-family:'DejaVu Sans';-inkscape-font-specification:DejaVuSans;writing-mode:lr-tb;fill:#000000;fill-opacity:1;fill-rule:nonzero;stroke:none"
           transform="scale(1,-1)"><tspan
             id="tspan114"
             y="0"
             x="0 10.176">40</tspan></text>
</g><path
         id="path118"
         style="fill:#000000;fill-opacity:1;fill-rule:nonzero;stroke:#000000;stroke-width:0.80000001;stroke-linecap:butt;stroke-linejoin:round;stroke-miterlimit:10;stroke-dasharray:none;stroke-opacity:1"
         d="m 606.74821,56.36 v -3.5" /><g
         transform="translate(596.56071,37.20375)"
         id="g120"><text
           id="text124"
           style="font-variant:normal;font-weight:normal;font-size:16px;font-family:'DejaVu Sans';-inkscape-font-specification:DejaVuSans;writing-mode:lr-tb;fill:#000000;fill-opacity:1;fill-rule:nonzero;stroke:none"
           transform="scale(1,-1)"><tspan
             id="tspan122"
             y="0"
             x="0 10.176">50</tspan></text>
</g><path
         id="path126"
         style="fill:#000000;fill-opacity:1;fill-rule:nonzero;stroke:#000000;stroke-width:0.80000001;stroke-linecap:butt;stroke-linejoin:round;stroke-miterlimit:10;stroke-dasharray:none;stroke-opacity:1"
         d="m 705.81249,56.36 v -3.5" /><g
         transform="translate(695.62499,37.20375)"
         id="g128"><text
           id="text132"
           style="font-variant:normal;font-weight:normal;font-size:16px;font-family:'DejaVu Sans';-inkscape-font-specification:DejaVuSans;writing-mode:lr-tb;fill:#000000;fill-opacity:1;fill-rule:nonzero;stroke:none"
           transform="scale(1,-1)"><tspan
             id="tspan130"
             y="0"
             x="0 10.176">60</tspan></text>
</g><path
         id="path134"
         style="fill:#000000;fill-opacity:1;fill-rule:nonzero;stroke:#000000;stroke-width:0.80000001;stroke-linecap:butt;stroke-linejoin:round;stroke-miterlimit:10;stroke-dasharray:none;stroke-opacity:1"
         d="m 804.87677,56.36 v -3.5" /><g
         transform="translate(794.68927,37.20375)"
         id="g136"><text
           id="text140"
           style="font-variant:normal;font-weight:normal;font-size:16px;font-family:'DejaVu Sans';-inkscape-font-specification:DejaVuSans;writing-mode:lr-tb;fill:#000000;fill-opacity:1;fill-rule:nonzero;stroke:none"
           transform="scale(1,-1)"><tspan
             id="tspan138"
             y="0"
             x="0 10.176">70</tspan></text>
</g><path
         id="path142"
         style="fill:#000000;fill-opacity:1;fill-rule:nonzero;stroke:#000000;stroke-width:0.80000001;stroke-linecap:butt;stroke-linejoin:round;stroke-miterlimit:10;stroke-dasharray:none;stroke-opacity:1"
         d="m 903.94105,56.36 v -3.5" /><g
         transform="translate(893.75355,37.20375)"
         id="g144"><text
           id="text148"
           style="font-variant:normal;font-weight:normal;font-size:16px;font-family:'DejaVu Sans';-inkscape-font-specification:DejaVuSans;writing-mode:lr-tb;fill:#000000;fill-opacity:1;fill-rule:nonzero;stroke:none"
           transform="scale(1,-1)"><tspan
             id="tspan146"
             y="0"
             x="0 10.176">80</tspan></text>
</g><path
         id="path150"
         style="fill:#000000;fill-opacity:1;fill-rule:nonzero;stroke:#000000;stroke-width:0.80000001;stroke-linecap:butt;stroke-linejoin:round;stroke-miterlimit:10;stroke-dasharray:none;stroke-opacity:1"
         d="m 1003.0053,56.36 v -3.5" /><g
         transform="translate(992.81783,37.20375)"
         id="g152"><text
           id="text156"
           style="font-variant:normal;font-weight:normal;font-size:16px;font-family:'DejaVu Sans';-inkscape-font-specification:DejaVuSans;writing-mode:lr-tb;fill:#000000;fill-opacity:1;fill-rule:nonzero;stroke:none"
           transform="scale(1,-1)"><tspan
             id="tspan154"
             y="0"
             x="0 10.176">90</tspan></text>
</g><path
         id="path158"
         style="fill:#000000;fill-opacity:1;fill-rule:nonzero;stroke:#000000;stroke-width:0.80000001;stroke-linecap:butt;stroke-linejoin:round;stroke-miterlimit:10;stroke-dasharray:none;stroke-opacity:1"
         d="m 1102.0696,56.36 v -3.5" /><g
         transform="translate(1086.7884,37.20375)"
         id="g160"><text
           id="text164"
           style="font-variant:normal;font-weight:normal;font-size:16px;font-family:'DejaVu Sans';-inkscape-font-specification:DejaVuSans;writing-mode:lr-tb;fill:#000000;fill-opacity:1;fill-rule:nonzero;stroke:none"
           transform="scale(1,-1)"><tspan
             id="tspan162"
             y="0"
             x="0 10.176 20.351999">100</tspan></text>
</g><g
         transform="translate(565.95906,14.6725)"
         id="g166"><text
           id="text170"
           style="font-variant:normal;font-weight:normal;font-size:20px;font-family:'DejaVu Sans';-inkscape-font-specification:DejaVuSans;writing-mode:lr-tb;fill:#000000;fill-opacity:1;fill-rule:nonzero;stroke:none"
           transform="scale(1,-1)"><tspan
             id="tspan168"
             y="0"
             x="0 12.64 25.34 37.580002 48.580002 61.259998">Epochs</tspan></text>
</g><path
         id="path172"
         style="fill:#000000;fill-opacity:1;fill-rule:nonzero;stroke:#000000;stroke-width:0.80000001;stroke-linecap:butt;stroke-linejoin:round;stroke-miterlimit:10;stroke-dasharray:none;stroke-opacity:1"
         d="m 62.39,56.36 h -3.5" /><g
         transform="translate(35.015,50.281875)"
         id="g174"><text
           id="text178"
           style="font-variant:normal;font-weight:normal;font-size:16px;font-family:'DejaVu Sans';-inkscape-font-specification:DejaVuSans;writing-mode:lr-tb;fill:#000000;fill-opacity:1;fill-rule:nonzero;stroke:none"
           transform="scale(1,-1)"><tspan
             id="tspan176"
             y="0"
             x="0 10.176">60</tspan></text>
</g><path
         id="path180"
         style="fill:#000000;fill-opacity:1;fill-rule:nonzero;stroke:#000000;stroke-width:0.80000001;stroke-linecap:butt;stroke-linejoin:round;stroke-miterlimit:10;stroke-dasharray:none;stroke-opacity:1"
         d="m 62.39,137.965 h -3.5" /><g
         transform="translate(35.015,131.88687)"
         id="g182"><text
           id="text186"
           style="font-variant:normal;font-weight:normal;font-size:16px;font-family:'DejaVu Sans';-inkscape-font-specification:DejaVuSans;writing-mode:lr-tb;fill:#000000;fill-opacity:1;fill-rule:nonzero;stroke:none"
           transform="scale(1,-1)"><tspan
             id="tspan184"
             y="0"
             x="0 10.176">65</tspan></text>
</g><path
         id="path188"
         style="fill:#000000;fill-opacity:1;fill-rule:nonzero;stroke:#000000;stroke-width:0.80000001;stroke-linecap:butt;stroke-linejoin:round;stroke-miterlimit:10;stroke-dasharray:none;stroke-opacity:1"
         d="m 62.39,219.57 h -3.5" /><g
         transform="translate(35.015,213.49187)"
         id="g190"><text
           id="text194"
           style="font-variant:normal;font-weight:normal;font-size:16px;font-family:'DejaVu Sans';-inkscape-font-specification:DejaVuSans;writing-mode:lr-tb;fill:#000000;fill-opacity:1;fill-rule:nonzero;stroke:none"
           transform="scale(1,-1)"><tspan
             id="tspan192"
             y="0"
             x="0 10.176">70</tspan></text>
</g><path
         id="path196"
         style="fill:#000000;fill-opacity:1;fill-rule:nonzero;stroke:#000000;stroke-width:0.80000001;stroke-linecap:butt;stroke-linejoin:round;stroke-miterlimit:10;stroke-dasharray:none;stroke-opacity:1"
         d="m 62.39,301.175 h -3.5" /><g
         transform="translate(35.015,295.09687)"
         id="g198"><text
           id="text202"
           style="font-variant:normal;font-weight:normal;font-size:16px;font-family:'DejaVu Sans';-inkscape-font-specification:DejaVuSans;writing-mode:lr-tb;fill:#000000;fill-opacity:1;fill-rule:nonzero;stroke:none"
           transform="scale(1,-1)"><tspan
             id="tspan200"
             y="0"
             x="0 10.176">75</tspan></text>
</g><path
         id="path204"
         style="fill:#000000;fill-opacity:1;fill-rule:nonzero;stroke:#000000;stroke-width:0.80000001;stroke-linecap:butt;stroke-linejoin:round;stroke-miterlimit:10;stroke-dasharray:none;stroke-opacity:1"
         d="m 62.39,382.78 h -3.5" /><g
         transform="translate(35.015,376.70187)"
         id="g206"><text
           id="text210"
           style="font-variant:normal;font-weight:normal;font-size:16px;font-family:'DejaVu Sans';-inkscape-font-specification:DejaVuSans;writing-mode:lr-tb;fill:#000000;fill-opacity:1;fill-rule:nonzero;stroke:none"
           transform="scale(1,-1)"><tspan
             id="tspan208"
             y="0"
             x="0 10.176">80</tspan></text>
</g><path
         id="path212"
         style="fill:#000000;fill-opacity:1;fill-rule:nonzero;stroke:#000000;stroke-width:0.80000001;stroke-linecap:butt;stroke-linejoin:round;stroke-miterlimit:10;stroke-dasharray:none;stroke-opacity:1"
         d="m 62.39,464.385 h -3.5" /><g
         transform="translate(35.015,458.30687)"
         id="g214"><text
           id="text218"
           style="font-variant:normal;font-weight:normal;font-size:16px;font-family:'DejaVu Sans';-inkscape-font-specification:DejaVuSans;writing-mode:lr-tb;fill:#000000;fill-opacity:1;fill-rule:nonzero;stroke:none"
           transform="scale(1,-1)"><tspan
             id="tspan216"
             y="0"
             x="0 10.176">85</tspan></text>
</g><path
         id="path220"
         style="fill:#000000;fill-opacity:1;fill-rule:nonzero;stroke:#000000;stroke-width:0.80000001;stroke-linecap:butt;stroke-linejoin:round;stroke-miterlimit:10;stroke-dasharray:none;stroke-opacity:1"
         d="m 62.39,545.99 h -3.5" /><g
         transform="translate(35.015,539.91187)"
         id="g222"><text
           id="text226"
           style="font-variant:normal;font-weight:normal;font-size:16px;font-family:'DejaVu Sans';-inkscape-font-specification:DejaVuSans;writing-mode:lr-tb;fill:#000000;fill-opacity:1;fill-rule:nonzero;stroke:none"
           transform="scale(1,-1)"><tspan
             id="tspan224"
             y="0"
             x="0 10.176">90</tspan></text>
</g><path
         id="path228"
         style="fill:#000000;fill-opacity:1;fill-rule:nonzero;stroke:#000000;stroke-width:0.80000001;stroke-linecap:butt;stroke-linejoin:round;stroke-miterlimit:10;stroke-dasharray:none;stroke-opacity:1"
         d="m 62.39,627.595 h -3.5" /><g
         transform="translate(35.015,621.51688)"
         id="g230"><text
           id="text234"
           style="font-variant:normal;font-weight:normal;font-size:16px;font-family:'DejaVu Sans';-inkscape-font-specification:DejaVuSans;writing-mode:lr-tb;fill:#000000;fill-opacity:1;fill-rule:nonzero;stroke:none"
           transform="scale(1,-1)"><tspan
             id="tspan232"
             y="0"
             x="0 10.176">95</tspan></text>
</g><g
         transform="rotate(90,-143.69109,170.54984)"
         id="g236"><text
           id="text240"
           style="font-variant:normal;font-weight:normal;font-size:20px;font-family:'DejaVu Sans';-inkscape-font-specification:DejaVuSans;writing-mode:lr-tb;fill:#000000;fill-opacity:1;fill-rule:nonzero;stroke:none"
           transform="scale(1,-1)"><tspan
             id="tspan238"
             y="0"
             x="0 8.8293753 21.129375 31.549376 39.389374 45.749374 59.085625 70.085625 81.085625 93.765625 101.98563 114.24563 125.24563">Test Accuracy</tspan></text>
</g></g><g
       id="g242"><g
         clip-path="url(#clipPath248)"
         id="g244"><path
           id="path250"
           style="fill:none;stroke:#1f77b4;stroke-width:2;stroke-linecap:square;stroke-linejoin:round;stroke-miterlimit:10;stroke-dasharray:none;stroke-opacity:1"
           d="m 141.64143,-1 9.4111,130.91329 9.90643,80.84335 9.90643,44.61074 9.90642,24.1551 9.90643,26.65765 9.90643,11.04386 9.90643,37.21189 9.90642,-1.79531 9.90643,7.29002 9.90643,-4.56989 9.90643,1.41452 9.90643,1.52329 9.90642,70.34351 9.90643,-49.01743 9.90643,26.27682 9.90643,13.43765 9.90643,-9.5206 9.90642,11.47909 9.90643,27.63691 9.90643,-36.77666 9.90643,-11.64233 9.90643,7.07243 9.90642,39.17042 9.90643,-0.76168 9.90643,-2.93778 9.90643,21.27173 9.90643,-42.32581 9.90642,-57.39547 9.90643,71.32277 9.90643,19.31317 9.90643,19.80283 9.90642,4.78747 9.90643,-95.31463 9.90643,41.50973 9.90643,25.02553 9.90643,-0.97923 9.90642,-11.96874 9.90643,25.67836 9.90643,-43.30508 9.90643,28.01773 9.90643,7.99729 9.90642,1.95852 9.90643,-15.12414 9.90643,10.82628 9.90643,-21.4349 9.90643,-8.65014 9.90642,21.10852 9.90643,-11.31589 9.90643,44.50189 9.90643,-39.60565 9.90643,-16.42978 9.90642,36.17822 9.90643,-21.10849 9.90643,-10.93507 9.90643,21.38052 9.90642,12.89359 9.90643,135.8451 9.90643,7.99729 9.90643,3.0466 9.90643,1.30567 9.90642,-0.38079 9.90643,1.08806 9.90643,1.52328 9.90643,-2.55696 9.90643,-0.21761 9.90642,2.39375 9.90643,-2.77457 9.90643,3.80821 9.90643,-5.1683 9.90643,2.93778 9.90642,-2.88336 9.90643,-2.82899 9.90643,0.70723 9.90643,-2.82896 9.90643,-0.43523 9.90642,4.18907 9.90643,1.03364 9.90643,-0.32641 9.90643,-5.60353 9.90643,-1.08806 9.90642,1.14244 9.90643,-2.77458 9.90643,4.18907 9.90643,-5.82115 9.90643,0.76164 9.90642,-1.57766 9.9064,-5.11395 9.9065,3.80825 9.9064,-5.16834 9.9064,0.0544 9.9064,5.60347 9.9065,-6.85479 9.9064,5.87556 9.9064,-7.45323 9.9065,2.28493 9.9064,6.03873" /></g></g><g
       id="g252"><g
         clip-path="url(#clipPath258)"
         id="g254"><path
           id="path260"
           style="fill:none;stroke:#1f77b4;stroke-width:1;stroke-linecap:butt;stroke-linejoin:round;stroke-miterlimit:10;stroke-dasharray:3.7, 1.6;stroke-dashoffset:0;stroke-opacity:1"
           d="M 62.39,593.64732 H 1141.2" /></g></g><g
       id="g262"><g
         clip-path="url(#clipPath268)"
         id="g264"><path
           id="path270"
           style="fill:none;stroke:#ff7f0e;stroke-width:2;stroke-linecap:square;stroke-linejoin:round;stroke-miterlimit:10;stroke-dasharray:none;stroke-opacity:1"
           d="m 144.7349,-1 6.31763,50.341979 9.90643,76.164661 9.90643,14.58008 9.90642,117.51124 9.90643,23.01257 9.90643,-12.34956 9.90643,50.32307 9.90642,0.48968 9.90643,8.75889 9.90643,-20.0204 9.90643,62.40063 9.90643,11.80554 9.90642,2.6113 9.90643,-35.68854 9.90643,18.87795 9.90643,11.26147 9.90643,-7.83408 9.90642,-4.73307 9.90643,7.83409 9.90643,-20.89091 9.90643,30.35707 9.90643,-9.68378 9.90642,-15.28734 9.90643,38.57197 9.90643,-39.87768 9.90643,50.97596 9.90643,-59.46286 9.90642,54.13129 9.90643,-50.64948 9.90643,62.34625 9.90643,4.29787 9.90642,-34.27412 9.90643,5.0051 9.90643,8.3237 9.90643,3.64504 9.90643,26.168 9.90642,-6.58283 9.90643,-36.66783 9.90643,-32.42438 9.90643,74.75016 9.90643,-10.0646 9.90642,-13.22 9.90643,23.55663 9.90643,-36.66784 9.90643,38.13671 9.90643,-32.58755 9.90642,-16.53864 9.90643,36.39584 9.90643,17.19142 9.90643,-79.91846 9.90643,23.66545 9.90642,32.20674 9.90643,-5.33151 9.90643,-13.3832 9.90643,20.23806 9.90642,-10.98952 9.90643,164.40689 9.90643,8.43252 9.90643,-4.6243 9.90643,2.72016 9.90642,-6.90924 9.90643,-0.21758 9.90643,-2.44817 9.90643,-12.67597 9.90643,9.24858 9.90642,-11.53351 9.90643,0.0544 9.90643,-15.01531 9.90643,11.69671 9.90643,-10.28225 9.90642,1.36011 9.90643,-0.97929 9.90643,-2.17614 9.90643,1.57774 9.90643,-10.39108 9.90642,-2.39372 9.90643,-1.74087 9.90643,-12.94804 9.90643,18.71474 9.90643,-5.92991 9.90642,-10.98951 9.90643,-6.90924 9.90643,9.9014 9.90643,7.12688 9.90643,-8.65017 9.90642,5.05951 9.9064,-5.33147 9.9065,0.38079 9.9064,-15.12414 9.9064,-1.25126 9.9064,15.83137 9.9065,-1.68652 9.9064,-6.14759 9.9064,7.9429 9.9065,-8.32369 9.9064,-8.86773" /></g></g><g
       id="g272"><g
         clip-path="url(#clipPath278)"
         id="g274"><path
           id="path280"
           style="fill:none;stroke:#ff7f0e;stroke-width:1;stroke-linecap:butt;stroke-linejoin:round;stroke-miterlimit:10;stroke-dasharray:3.7, 1.6;stroke-dashoffset:0;stroke-opacity:1"
           d="M 62.39,509.59417 H 1141.2" /></g></g><g
       id="g282"><g
         clip-path="url(#clipPath288)"
         id="g284"><path
           id="path290"
           style="fill:none;stroke:#2ca02c;stroke-width:2;stroke-linecap:square;stroke-linejoin:round;stroke-miterlimit:10;stroke-dasharray:none;stroke-opacity:1"
           d="m 146.61664,-1 4.43589,45.55447 9.90643,73.98855 9.90643,39.388 9.90642,-5.44033 9.90643,67.67773 9.90643,65.55603 9.90643,8.59573 9.90642,8.43252 9.90643,18.3883 9.90643,-7.61644 9.90643,-9.6294 9.90643,33.94768 9.90642,-3.48181 9.90643,-33.83885 9.90643,83.6723 9.90643,-32.80517 9.90643,-30.62914 9.90642,-27.20164 9.90643,-22.7406 9.90643,72.08441 9.90643,40.42171 9.90643,-33.45806 9.90642,12.83918 9.90643,0.4352 9.90643,32.31562 9.90643,-28.23531 9.90643,-32.91403 9.90642,39.66003 9.90643,-45.97083 9.90643,45.80759 9.90643,-7.99729 9.90642,-5.05951 9.90643,28.34414 9.90643,11.31589 9.90643,-63.21665 9.90643,43.52269 9.90642,-25.78725 9.90643,-28.39848 9.90643,27.90887 9.90643,18.55153 9.90643,22.90385 9.90642,-0.81609 9.90643,-14.30809 9.90643,-29.21457 9.90643,34.11088 9.90643,-31.39068 9.90642,43.95786 9.90643,-100.31973 9.90643,91.61517 9.90643,-25.29753 9.90643,38.9528 9.90642,-17.30028 9.90643,-53.42405 9.90643,23.66545 9.90643,18.66033 9.90642,-20.40126 9.90643,187.2019 9.90643,6.474 9.90643,-3.37302 9.90643,-0.70723 9.90642,-2.82899 9.90643,-8.54134 9.90643,-5.4403 9.90643,-9.73822 9.90643,5.33153 9.90642,-16.86504 9.90643,2.33938 9.90643,-16.37543 9.90643,-2.50258 9.90643,5.65797 9.90642,-12.948 9.90643,-16.59298 9.90643,8.10605 9.90643,-9.03093 9.90643,9.08537 9.90642,-6.31079 9.90643,-7.67088 9.90643,-8.75893 9.90643,-4.18907 9.90643,12.34956 9.90642,-13.65523 9.90643,2.33934 9.90643,1.30567 9.90643,-7.07244 9.90643,2.44817 9.90642,-2.50258 9.9064,-5.92994 9.9065,5.11391 9.9064,-10.22783 9.9064,-4.84189 9.9064,2.61137 9.9065,-0.65285 9.9064,-21.92452 9.9064,22.35975 9.9065,2.17614 9.9064,-14.74332" /></g></g><g
       id="g292"><g
         clip-path="url(#clipPath298)"
         id="g294"><path
           id="path300"
           style="fill:none;stroke:#2ca02c;stroke-width:1;stroke-linecap:butt;stroke-linejoin:round;stroke-miterlimit:10;stroke-dasharray:3.7, 1.6;stroke-dashoffset:0;stroke-opacity:1"
           d="M 62.39,464.71142 H 1141.2" /></g></g><g
       id="g302"><g
         clip-path="url(#clipPath308)"
         id="g304"><path
           id="path310"
           style="fill:none;stroke:#d62728;stroke-width:2;stroke-linecap:square;stroke-linejoin:round;stroke-miterlimit:10;stroke-dasharray:none;stroke-opacity:1"
           d="m 161.02655,-1 9.83884,52.681322 9.90642,90.581568 9.90643,13.27441 9.90643,62.83584 9.90643,60.44208 9.90642,-3.5906 9.90643,15.28734 9.90643,-26.00483 9.90643,44.61075 9.90643,-13.00242 9.90642,28.8882 9.90643,-23.0126 9.90643,45.97082 9.90643,-22.35978 9.90643,29.75863 9.90642,-4.73306 9.90643,-5.16837 9.90643,-44.33871 9.90643,46.29723 9.90643,-1.63211 9.90642,-47.00443 9.90643,35.30775 9.90643,9.08534 9.90643,-5.60353 9.90643,35.19896 9.90642,7.39885 9.90643,-41.12891 9.90643,-14.03608 9.90643,33.40364 9.90642,-4.08024 9.90643,2.55696 9.90643,43.90351 9.90643,-62.29184 9.90643,12.94803 9.90642,28.12649 9.90643,-27.3105 9.90643,31.88036 9.90643,-10.60866 9.90643,-39.33359 9.90642,71.8668 9.90643,-87.97016 9.90643,68.82018 9.90643,-10.66307 9.90643,-8.26931 9.90642,23.55669 9.90643,9.24858 9.90643,-43.8491 9.90643,-38.46319 9.90643,58.26601 9.90642,-22.41419 9.90643,24.91671 9.90643,-13.16559 9.90643,16.3754 9.90642,-21.87014 9.90643,181.59834 9.90643,5.27715 9.90643,-0.92491 9.90643,-4.13466 9.90642,-5.65791 9.90643,-0.10883 9.90643,-11.15268 9.90643,-5.82115 9.90643,-6.09318 9.90642,-1.5777 9.90643,-14.09047 9.90643,-5.87556 9.90643,0.38082 9.90643,-13.05679 9.90642,1.79532 9.90643,-0.38079 9.90643,-8.59576 9.90643,3.53622 9.90643,-13.38321 9.90642,-6.202 9.90643,10.44545 9.90643,-16.32101 9.90643,1.08808 9.90643,-1.14246 9.90642,5.3315 9.90643,-21.92455 9.90643,18.93239 9.90643,-19.85724 9.90643,16.81063 9.90642,-14.63449 9.9064,-5.44033 9.9065,2.50255 9.9064,-8.75893 9.9064,-3.37302 9.9064,-6.09318 9.9065,2.33935 9.9064,-8.97655 9.9064,14.6889 9.9065,-7.39884 9.9064,-0.27203" /></g></g><g
       id="g312"><g
         clip-path="url(#clipPath318)"
         id="g314"><path
           id="path320"
           style="fill:none;stroke:#d62728;stroke-width:1;stroke-linecap:butt;stroke-linejoin:round;stroke-miterlimit:10;stroke-dasharray:3.7, 1.6;stroke-dashoffset:0;stroke-opacity:1"
           d="M 62.39,488.21366 H 1141.2" /></g></g><g
       id="g322"><g
         clip-path="url(#clipPath328)"
         id="g324"><path
           id="path330"
           style="fill:none;stroke:#9467bd;stroke-width:2;stroke-linecap:square;stroke-linejoin:round;stroke-miterlimit:10;stroke-dasharray:none;stroke-opacity:1"
           d="m 156.15896,-1 4.8,39.461291 9.90643,103.257539 9.90642,1.14246 9.90643,62.0742 9.90643,54.18573 9.90643,-1.46888 9.90642,18.82357 9.90643,38.78952 9.90643,-2.50251 9.90643,4.78748 9.90643,36.23266 9.90642,-22.90387 9.90643,-57.17786 9.90643,41.83613 9.90643,-1.03364 9.90643,37.75592 9.90642,-77.03516 9.90643,55.81788 9.90643,-2.93782 9.90643,-1.5777 9.90643,54.02253 9.90642,-1.1425 9.90643,-55.54578 9.90643,-32.42438 9.90643,47.38528 9.90643,-62.61825 9.90642,111.36366 9.90643,-29.64981 9.90643,3.3186 9.90643,39.71441 9.90642,-17.73548 9.90643,-1.52329 9.90643,4.78751 9.90643,-28.07211 9.90643,5.71233 9.90642,-16.37543 9.90643,-2.72013 9.90643,22.79499 9.90643,9.03096 9.90643,-36.01502 9.90642,30.79227 9.90643,-5.11392 9.90643,18.06192 9.90643,-5.22271 9.90643,-111.146 9.90642,116.85836 9.90643,-16.53863 9.90643,5.00509 9.90643,31.28195 9.90643,-29.16019 9.90642,-41.40094 9.90643,5.1683 9.90643,51.03034 9.90643,4.62427 9.90642,10.01022 9.90643,135.62751 9.90643,4.7331 9.90643,-2.17614 9.90643,-1.30567 9.90642,-6.58283 9.90643,0.16324 9.90643,-5.44036 9.90643,-6.63717 9.90643,-18.06196 9.90642,-6.96358 9.90643,7.72526 9.90643,-3.1554 9.90643,-8.86775 9.90643,-9.13976 9.90642,-6.25638 9.90643,1.95852 9.90643,-15.06973 9.90643,6.14759 9.90643,1.6865 9.90642,-9.95581 9.90643,1.84969 9.90643,-10.88062 9.90643,-15.99461 9.90643,11.15269 9.90642,1.46887 9.90643,-2.50254 9.90643,2.44816 9.90643,-11.3703 9.90643,19.80282 9.90642,-35.5254 9.9064,10.88069 9.9065,-4.67868 9.9064,-13.81844 9.9064,2.01293 9.9064,12.18633 9.9065,5.71235 9.9064,-12.07753 9.9064,0.70723 9.9065,0.59844 9.9064,-5.05951" /></g></g><g
       id="g332"><g
         clip-path="url(#clipPath338)"
         id="g334"><path
           id="path340"
           style="fill:none;stroke:#9467bd;stroke-width:1;stroke-linecap:butt;stroke-linejoin:round;stroke-miterlimit:10;stroke-dasharray:3.7, 1.6;stroke-dashoffset:0;stroke-opacity:1"
           d="M 62.39,466.99636 H 1141.2" /></g></g><g
       id="g342"><g
         clip-path="url(#clipPath348)"
         id="g344"><path
           id="path350"
           style="fill:none;stroke:#8c564b;stroke-width:2;stroke-linecap:square;stroke-linejoin:round;stroke-miterlimit:10;stroke-dasharray:none;stroke-opacity:1"
           d="m 184.65389,-1 6.02435,42.94313 9.90643,53.478466 9.90643,35.797404 9.90642,-1.25129 9.90643,52.11838 9.90643,-21.10846 9.90643,10.93503 9.90643,-28.94254 9.90642,89.65669 9.90643,-102.82231 9.90643,-20.23806 9.90643,123.44119 9.90643,8.70452 9.90642,-32.642 9.90643,31.00989 9.90643,-86.39247 9.90643,26.54882 9.90643,11.96874 9.90642,86.88208 9.90643,-39.5512 9.90643,18.27954 9.90643,-93.68256 9.90643,69.90828 9.90642,-13.92723 9.90643,0.76161 9.90643,-20.40123 9.90643,67.13373 9.90642,-41.29214 9.90643,6.474 9.90643,0.16321 9.90643,-60.55088 9.90643,125.39968 9.90642,-59.78927 9.90643,-18.55153 9.90643,25.73277 9.90643,14.03602 9.90643,-37.75589 9.90642,43.63148 9.90643,-8.48693 9.90643,13.6552 9.90643,-20.1292 9.90643,-48.96299 9.90642,94.77061 9.90643,-8.16049 9.90643,-18.60595 9.90643,-20.40126 9.90643,48.25575 9.90642,4.7331 9.90643,-36.77663 9.90643,-39.71447 9.90643,39.06159 9.90642,-50.92148 9.90643,230.01727 9.90643,1.14246 9.90643,-4.13466 9.90643,-17.95309 9.90642,-3.64501 9.90643,-6.74603 9.90643,-5.82115 9.90643,-22.08776 9.90643,2.33938 9.90642,-35.03576 9.90643,0.16324 9.90643,-12.45842 9.90643,13.98167 9.90643,-25.95041 9.90642,12.40397 9.90643,-10.39104 9.90643,-2.50255 9.90643,-31.88032 9.90643,10.28218 9.90642,-14.90646 9.90643,15.94013 9.90643,-32.36997 9.90643,-10.93507 9.90643,34.60053 9.90642,-38.29998 9.90643,-10.49984 9.90643,6.36524 9.90643,9.0309 9.90643,-0.0544 9.90642,-19.42197 9.9064,2.77454 9.9065,-24.26389 9.9064,-24.31827 9.9064,29.92184 9.9064,-10.7719 9.9065,-5.27709 9.9064,5.1683 9.9064,7.01802 9.9065,-13.11117 9.9064,-20.61888" /></g></g><g
       id="g352"><g
         clip-path="url(#clipPath358)"
         id="g354"><path
           id="path360"
           style="fill:none;stroke:#8c564b;stroke-width:1;stroke-linecap:butt;stroke-linejoin:round;stroke-miterlimit:10;stroke-dasharray:3.7, 1.6;stroke-dashoffset:0;stroke-opacity:1"
           d="M 62.39,345.07849 H 1141.2" /></g></g><g
       id="g362"><path
         id="path364"
         style="fill:none;stroke:#000000;stroke-width:0.80000001;stroke-linecap:square;stroke-linejoin:miter;stroke-miterlimit:10;stroke-dasharray:none;stroke-opacity:1"
         d="M 62.39,56.36 V 709.2" /><path
         id="path366"
         style="fill:none;stroke:#000000;stroke-width:0.80000001;stroke-linecap:square;stroke-linejoin:miter;stroke-miterlimit:10;stroke-dasharray:none;stroke-opacity:1"
         d="M 1141.2,56.36 V 709.2" /><path
         id="path368"
         style="fill:none;stroke:#000000;stroke-width:0.80000001;stroke-linecap:square;stroke-linejoin:miter;stroke-miterlimit:10;stroke-dasharray:none;stroke-opacity:1"
         d="M 62.39,56.36 H 1141.2" /><path
         id="path370"
         style="fill:none;stroke:#000000;stroke-width:0.80000001;stroke-linecap:square;stroke-linejoin:miter;stroke-miterlimit:10;stroke-dasharray:none;stroke-opacity:1"
         d="M 62.39,709.2 H 1141.2" /><path
         id="path372"
         style="fill:#ffffff;fill-opacity:0.8;fill-rule:nonzero;stroke:#cccccc;stroke-width:1;stroke-linecap:butt;stroke-linejoin:miter;stroke-miterlimit:10;stroke-dasharray:none;stroke-opacity:0.8"
         d="m 74.486,544.81725 h 133.18662 c 2.304,0 3.456,1.152 3.456,3.456 V 697.104 c 0,2.304 -1.152,3.456 -3.456,3.456 H 74.486 c -2.304,0 -3.456,-1.152 -3.456,-3.456 V 548.27325 c 0,-2.304 1.152,-3.456 3.456,-3.456 z" /><path
         id="path374"
         style="fill:none;stroke:#1f77b4;stroke-width:2;stroke-linecap:square;stroke-linejoin:round;stroke-miterlimit:10;stroke-dasharray:none;stroke-opacity:1"
         d="m 77.942,686.77413 h 17.28 17.28" /><g
         transform="translate(126.326,680.72612)"
         id="g376"><text
           id="text380"
           style="font-variant:normal;font-weight:normal;font-size:17.28000069px;font-family:'DejaVu Sans';-inkscape-font-specification:DejaVuSans;writing-mode:lr-tb;fill:#000000;fill-opacity:1;fill-rule:nonzero;stroke:none"
           transform="scale(1,-1)"><tspan
             id="tspan378"
             y="0"
             x="0 9.5039997 14.30784 24.93504 35.527679">clean</tspan></text>
</g><path
         id="path382"
         style="fill:none;stroke:#ff7f0e;stroke-width:2;stroke-linecap:square;stroke-linejoin:round;stroke-miterlimit:10;stroke-dasharray:none;stroke-opacity:1"
         d="m 77.942,661.681 h 17.28 17.28" /><g
         transform="translate(126.326,655.633)"
         id="g384"><text
           id="text388"
           style="font-variant:normal;font-weight:normal;font-size:17.28000069px;font-family:'DejaVu Sans';-inkscape-font-specification:DejaVuSans;writing-mode:lr-tb;fill:#000000;fill-opacity:1;fill-rule:nonzero;stroke:none"
           transform="scale(1,-1)"><tspan
             id="tspan386"
             y="0"
             x="0 10.59264 21.565439 32.538239 39.26532">aggre</tspan></text>
</g><path
         id="path390"
         style="fill:none;stroke:#2ca02c;stroke-width:2;stroke-linecap:square;stroke-linejoin:round;stroke-miterlimit:10;stroke-dasharray:none;stroke-opacity:1"
         d="m 77.942,636.58788 h 17.28 17.28" /><g
         transform="translate(126.326,630.53988)"
         id="g392"><text
           id="text396"
           style="font-variant:normal;font-weight:normal;font-size:17.28000069px;font-family:'DejaVu Sans';-inkscape-font-specification:DejaVuSans;writing-mode:lr-tb;fill:#000000;fill-opacity:1;fill-rule:nonzero;stroke:none"
           transform="scale(1,-1)"><tspan
             id="tspan394"
             y="0"
             x="0 7.1020799 17.694719 28.65024 39.623039 50.198399 67.029121">random1</tspan></text>
</g><path
         id="path398"
         style="fill:none;stroke:#d62728;stroke-width:2;stroke-linecap:square;stroke-linejoin:round;stroke-miterlimit:10;stroke-dasharray:none;stroke-opacity:1"
         d="m 77.942,611.49475 h 17.28 17.28" /><g
         transform="translate(126.326,605.44675)"
         id="g400"><text
           id="text404"
           style="font-variant:normal;font-weight:normal;font-size:17.28000069px;font-family:'DejaVu Sans';-inkscape-font-specification:DejaVuSans;writing-mode:lr-tb;fill:#000000;fill-opacity:1;fill-rule:nonzero;stroke:none"
           transform="scale(1,-1)"><tspan
             id="tspan402"
             y="0"
             x="0 7.1020799 17.694719 28.65024 39.623039 50.198399 67.029121">random2</tspan></text>
</g><path
         id="path406"
         style="fill:none;stroke:#9467bd;stroke-width:2;stroke-linecap:square;stroke-linejoin:round;stroke-miterlimit:10;stroke-dasharray:none;stroke-opacity:1"
         d="m 77.942,586.40162 h 17.28 17.28" /><g
         transform="translate(126.326,580.35362)"
         id="g408"><text
           id="text412"
           style="font-variant:normal;font-weight:normal;font-size:17.28000069px;font-family:'DejaVu Sans';-inkscape-font-specification:DejaVuSans;writing-mode:lr-tb;fill:#000000;fill-opacity:1;fill-rule:nonzero;stroke:none"
           transform="scale(1,-1)"><tspan
             id="tspan410"
             y="0"
             x="0 7.1020799 17.694719 28.65024 39.623039 50.198399 67.029121">random3</tspan></text>
</g><path
         id="path414"
         style="fill:none;stroke:#8c564b;stroke-width:2;stroke-linecap:square;stroke-linejoin:round;stroke-miterlimit:10;stroke-dasharray:none;stroke-opacity:1"
         d="m 77.942,561.3085 h 17.28 17.28" /><g
         transform="translate(126.326,555.2605)"
         id="g416"><text
           id="text420"
           style="font-variant:normal;font-weight:normal;font-size:17.28000069px;font-family:'DejaVu Sans';-inkscape-font-specification:DejaVuSans;writing-mode:lr-tb;fill:#000000;fill-opacity:1;fill-rule:nonzero;stroke:none"
           transform="scale(1,-1)"><tspan
             id="tspan418"
             y="0"
             x="0 14.13504 24.7104 31.812481 40.815361">worse</tspan></text>
</g></g></g></svg>